/* XPM */
static char *result[] = {
/* columns rows colors chars-per-pixel */
"32 32 8 1 ",
"  c None",
"# c #32303E",
". c #43495C",
"X c #434F78",
"o c #707994",
"O c #576EBA",
"+ c #61A7E6",
"@ c #9DA9CC",
/* pixels */
"                                ",
"                                ",
"                                ",
"            OOOOOOOO            ",
"         OOOOOOOOOOOOOO         ",
"        OOOOOXXXXXXXOO+O        ",
"       OOOOXXXXXXXXXXO++O       ",
"      OOOOOX########XX++XO      ",
"      OOOOX###....###XOXXO      ",
"      OOOOX##.####.##XOOOO      ",
"      OOOOX##o....o##XOOOO      ",
"    ##OOOOX##o####o##XOOOO##    ",
"   #.#OOOOX##o#..#o##XOOOO#.#   ",
"  #.o#OOOOX###@@@@###XOOOO#o.#  ",
" #.o.#O+OOO##########OOOOO#.o.# ",
" #@..#OO++O#########OOOOOO#..@# ",
" .o.# XO++XO########OOOOOX #.o. ",
"####  #XXXXOO+++++++OOOOX#  ####",
"#+++# ##XOOOOOOOOOOOOOOX## #+++#",
"+###+ X###OOOOOOOOOOOX###X +###+",
"+#  + #X###XXXXXXXXX####X# +  #+",
"##  # ##X##############X## #  ##",
"      #####X##XXXX##X#####      ",
"       ###XOX#XXXX#XOX###       ",
"        ##XOX##XX##XOX##        ",
"        ################        ",
"         #O+O######O+O#         ",
"         X###X    X###X         ",
"         #####    #####         ",
"                                ",
"                                ",
"                                "
};
