/* XPM */
static char *_5833984798a45d9ae51272f187ef899ofgyIOX2qLpgArW2[] = {
/* columns rows colors chars-per-pixel */
"32 32 10 1 ",
"  c None",
". c #32303E",
"X c #43495C",
"o c #434F78",
"O c #8F233D",
"+ c #F54E4E",
"@ c #707994",
"# c #576EBA",
"$ c #61A7E6",
"% c #9DA9CC",
/* pixels */
"                                ",
"                                ",
"            ########            ",
"         ###oooooooo###         ",
"        ###o........o#$#        ",
"       ####o..XXXX..oo#$#       ",
"      ####o..X....X..o##$#      ",
"      ####o..@XXXX@..o####      ",
"      ####o..@....@..o####      ",
"      #$$#o..@.XX.@..o#$$#      ",
"      #oo#o...%%%%...o#oo#      ",
"      ####o..........o####      ",
"    ..####o..........o####..    ",
"   .X.#$####........######.X.   ",
"  .X@.o#$###$$$$$$$$#####o.@X.  ",
" .X@X.oo#$##############oo.X@X. ",
" .%XX..oo##############oo..XX%. ",
" X@X. ..oooo########oooo.. .X@X ",
".X@.  ....oooooooooooo....  .@X.",
"....  o..................o  ....",
".###. o.....OO++++OO.....o .###.",
"#...# .o......OOOO......o. #...#",
"#.  # ..o..#........#..o.. #  .#",
"..  . ....o#o.oooo.o#o.... .  ..",
"      ....ooo.o##o.ooo....      ",
"       ...#$#..oo..#$#...       ",
"        .#...o....o...#.        ",
"        .o...o....o...o.        ",
"         .###......###.         ",
"          ...      ...          ",
"                                ",
"                                "
};
