/* XPM */
static char *result[] = {
/* columns rows colors chars-per-pixel */
"32 32 9 1 ",
"  c None",
"$ c #32303E",
". c #43495C",
"X c #434F78",
"o c #8F233D",
"O c #707994",
"+ c #576EBA",
"@ c #61A7E6",
"# c #9DA9CC",
/* pixels */
"                                ",
"                                ",
"                                ",
"            ++++++++            ",
"         ++++XXXXXXX+++         ",
"        @@+XXXXXXXXXX+@+        ",
"       +X@+X$$$$$$$$XX+@+       ",
"      +++XX$$$....$$$X++@+      ",
"      ++++X$$.$$$$.$$X++++      ",
"      ++++X$$O....O$$X++++      ",
"      ++++X$$O$$$$O$$X++++      ",
"    $$++++X$$O$..$O$$X++++$$    ",
"   $.$++++X$$$####$$$X++++$.$   ",
"  $.O$++++X$$$$$$$$$$X++++$O.$  ",
" $.O.$+@+++$$$$$$$$$$+++++$.O.$ ",
" $#..$X+@+++$$$$$$$$+X@@+X$..#$ ",
" .O.$ XX+@+++@@@@@@@++X@XX $.O. ",
"$.O$  $XX++++++++++++++XX$  $O.$",
"$$$$  $$XXXX++++++++XXXX$$  $$$$",
"$+@@$ $$$$XXXXXXXXXXXX$$$$ $@@+$",
"+$$$@ X$$$$$oooooooo$$$$$X @$$$+",
"+$  @ $X$$$$$$$$$$$$$$$$X$ @  $+",
"$$  $ $$X$$+$$XXXX$$+$$X$$ $  $$",
"      $$$$X+X$X++X$X+X$$$$      ",
"       $$$XXX$$XX$$XXX$$$       ",
"        $$$$$$$$$$$$$$$$        ",
"        $$+++$$$$$$+++$$        ",
"         X$$$X$$$$X$$$X         ",
"         $XXX$    $XXX$         ",
"          $$$      $$$          ",
"                                ",
"                                "
};
