/* XPM */
static char *result[] = {
/* columns rows colors chars-per-pixel */
"32 32 171 2 ",
"   c #000D26",
".  c #00133F",
"X  c #1F1E32",
"o  c #2E162D",
"O  c #3A0034",
"+  c #311E36",
"@  c #002D3E",
"#  c #042031",
"$  c #1E2B36",
"%  c #1C273D",
"&  c #19383A",
"*  c #272637",
"=  c #292A3B",
"-  c #34273A",
";  c #332D3D",
":  c #39283A",
">  c #2E343D",
",  c #34313E",
"<  c #3C323D",
"1  c #760002",
"2  c #481C2F",
"3  c #431937",
"4  c #651729",
"5  c #7A1725",
"6  c #7B1826",
"7  c #751829",
"8  c #6C0E27",
"9  c #4C2232",
"0  c #49263B",
"q  c #4C2A39",
"w  c #452B39",
"e  c #5C2630",
"r  c #572F37",
"t  c #552A39",
"y  c #592C3C",
"u  c #55363E",
"i  c #46393F",
"p  c #7C232E",
"a  c #672C3A",
"s  c #732534",
"d  c #7B2231",
"f  c #742B36",
"g  c #7C2832",
"h  c #5A423F",
"j  c #75453A",
"k  c #003642",
"l  c #113240",
"z  c #1C3C40",
"x  c #233842",
"c  c #243641",
"v  c #353440",
"b  c #313A41",
"n  c #383F4A",
"m  c #483140",
"M  c #4B3D42",
"N  c #443A44",
"B  c #5B3F46",
"V  c #673A46",
"C  c #00434A",
"Z  c #1E4A4D",
"A  c #2A4143",
"S  c #28494E",
"D  c #344247",
"F  c #33444A",
"G  c #344B4E",
"H  c #3A4447",
"J  c #34514F",
"K  c #254F51",
"L  c #384C50",
"P  c #355253",
"I  c #3A5355",
"U  c #375B58",
"Y  c #3C5E60",
"T  c #1E6160",
"R  c #236C6C",
"E  c #3C6361",
"W  c #3B6E6C",
"Q  c #386967",
"!  c #554144",
"~  c #5A4543",
"^  c #5F494B",
"/  c #4C4854",
"(  c #414D52",
")  c #544C59",
"_  c #654D48",
"`  c #6C5044",
"'  c #745546",
"]  c #795847",
"[  c #7C5B65",
"{  c #755967",
"}  c #41706C",
"|  c #417576",
" . c #6F616C",
".. c #72626D",
"X. c #79606B",
"o. c #7B6A74",
"O. c #7C6F7A",
"+. c #7E717C",
"@. c #8A0001",
"#. c #8D0F1F",
"$. c #9F0017",
"%. c #95001D",
"&. c #9F001A",
"*. c #88161F",
"=. c #991A1F",
"-. c #9B121C",
";. c #A10001",
":. c #A80000",
">. c #B51A12",
",. c #AC231D",
"<. c #A8391E",
"1. c #8B0025",
"2. c #810228",
"3. c #8B0827",
"4. c #9B0021",
"5. c #950F21",
"6. c #851D2B",
"7. c #9A1E27",
"8. c #A13835",
"9. c #C43C00",
"0. c #BE441E",
"q. c #BA4121",
"w. c #BA4724",
"e. c #B36123",
"r. c #BD7222",
"t. c #BD6132",
"y. c #CB4D1C",
"u. c #D35D21",
"i. c #D56820",
"p. c #D96724",
"a. c #D77221",
"s. c #D87031",
"d. c #E47725",
"f. c #835E45",
"g. c #8A535B",
"h. c #8C6544",
"j. c #8E6844",
"k. c #89654A",
"l. c #946B47",
"z. c #9C764A",
"x. c #AA7C44",
"c. c #815C66",
"v. c #88646D",
"b. c #82737D",
"n. c #88747B",
"m. c #B77360",
"M. c #A3736C",
"N. c #45827E",
"B. c #DF8125",
"V. c #EC9623",
"C. c #FFAC22",
"Z. c #FBB122",
"A. c #AE8246",
"S. c #B28447",
"D. c #B78A48",
"F. c #AA897F",
"G. c #BF947E",
"H. c #C09149",
"J. c #D48762",
"K. c #8D7C84",
"L. c #907B84",
"P. c #9B8381",
"I. c #AF9288",
"U. c #B99686",
"Y. c #C49B84",
"T. c #CAA68C",
"R. c #D8B799",
"E. c #DBBFA1",
"W. c #EBD3AF",
"Q. c #EED6B1",
"!. c None",
/* pixels */
"!.!.!.!.!.!.!.!.!.!.!.!.!.!.!.!.!.!.!.!.!.!.!.!.!.!.!.!.!.!.!.!.",
"!.!.!.!.!.!.!.!.!.!.!.!.!.!.!.!.!.!.!.!.!.!.!.!.!.!.!.!.!.!.!.!.",
"!.!.!.!.!.!.!.!.!.!.!.!.!.!.!.!.!.!.!.!.!.!.!.!.!.!.!.!.!.!.!.!.",
"!.!.!.!.!.!.!.!.!.!.!.!.!.!.!.!.!.!.!.!.!.!.!.!.!.!.!.!.!.!.!.!.",
"!.!.!.!.!.!.!.!.!.!.!.!.!.!.!.~ ' = !.!.!.!.!.!.!.!.!.!.!.!.!.!.",
"!.!.!.!.!.!.!.!.!.!.!.!.!.v l.k.N !.!.!.!.!.!.!.!.!.!.!.!.!.!.!.",
"!.!.!.!.!.!.!.!.!.!.!.!.. k.S.~ !.!.!.!.!.!.!.!.!.!.!.!.!.!.!.!.",
"!.!.!.!.!.!.!.!.!.!.!.v z.S.' < !.!.!.!.!.!.!.!.!.!.!.!.!.!.!.!.",
"!.!.!.!.!.!.!.!.!.!.!._ S.x._ !.!.!.!.!.!.!.!.!.!.!.!.!.!.!.!.!.",
"!.!.!.!.!.!.!.!.!.!.N f.S.A.] i !.!.!.!.!.!.!.!.!.!.!.!.!.!.!.!.",
"!.!.!.!.!.!.!.!.!.!.M f.A.A.j.] M !.!.!.!.!.!.!.!.!.!.!.!.!.!.!.",
"!.!.!.!.!.!.!.!.!.!.M f.z.D.x.l.` _ i !.!.!.!.!.!.!.!.!.!.!.!.!.",
"!.!.!.!.!.!.!.!.!.!.!._ h.x.D.H.D.h.N !.!.!.!.!.!.!.!.!.!.!.!.!.",
"!.!.!.!.!.!.!.!.!.!.!.! ] l.j.j.h.' ] < !.!.!.!.!.!.!.!.!.!.!.!.",
"> l !.!.!.!.!.!.; !.!.% ~ N @ @ c ~ ~ v !.!.!.; !.!.!.!.!.!.l > ",
"m d 6 < ; < !.; L n !.v S P } N.U S z v !.!.n L ; !.< ; < 6 d m ",
"w #.7.2.6 7 w > J G + !.E U W W Q P P P !., G J x q 7 6.5 7.5.w ",
"y r C w.%.#.7 9 Q I + A E E W | W L U E > - P Q 9 5 3.%.0.k r t ",
"!.6.t.d.i.q.7.4 T G b I G - > o > , - D F - G T 4 =.q.i.d.t.6.!.",
"!.p >.d.Z.B.1.0 2 v K b ; D E D E I ; ; b ; : 9 w 1.B.Z.d.>.d !.",
"!.!.3.p.V.<.e.0.5.6 9 F F > & % & $ X F F 0 6 #.q.e.<.V.i.3.!.!.",
"!.!.4 ,.4.r.C.u.&.*.8 K F N  . . . . .G Z 8 *.$.u.Z.a.4.,.4 !.!.",
"!.!.q f O a.V.d D u g # ..n.I.Y.U.U.P. .# g u D s V.a.O f m !.!.",
"!.!.!.k s y.p.t Z H 6 V +.R.Q.T.J.T.I.O.V 6 H Z t p.y.s k !.!.!.",
"!.!.!.!.a &.w.e R I 1 [ I.W.E.Y.Y.U.Y.K.c.1 I R e w.$.a !.!.!.!.",
"!.!.!.!.!.f $.d ( ~ @.{ U.Y.J.s.8.m.F.+.[ @.B ( d &.f !.!.!.!.!.",
"!.!.!.!.!.!.a 6.;.-.1 [ L.M.9.j 3 @.X.K.[ 1 -.;.6.a !.!.!.!.!.!.",
"!.!.!.!.!.!.!.< y t q / K.v.:.q , 1 v.b./ q t y ; !.!.!.!.!.!.!.",
"!.!.!.!.!.!.!.!.!.!.!.!.o.L.g.g g g.b.o.!.!.!.!.!.!.!.!.!.!.!.!.",
"!.!.!.!.!.!.!.!.!.!.!.!.* / b.o.o.+.) * !.!.!.!.!.!.!.!.!.!.!.!.",
"!.!.!.!.!.!.!.!.!.!.!.!.!.!.  !.!.!.!.!.!.!.!.!.!.!.!.!.!.!.!.!.",
"!.!.!.!.!.!.!.!.!.!.!.!.!.!.!.!.!.!.!.!.!.!.!.!.!.!.!.!.!.!.!.!."
};
