/* XPM */
static char *result[] = {
/* columns rows colors chars-per-pixel */
"32 32 169 2 ",
"   c #00193C",
".  c #39172D",
"X  c #311E36",
"o  c #24132B",
"O  c #00323D",
"+  c #162632",
"@  c #2D2E3C",
"#  c #26283B",
"$  c #332D3C",
"%  c #30273A",
"&  c #29393E",
"*  c #34313F",
"=  c #3E353F",
"-  c #790000",
";  c #69051E",
":  c #770015",
">  c #750419",
",  c #580026",
"<  c #5C1928",
"1  c #411335",
"2  c #531B36",
"3  c #7F0026",
"4  c #6A1D2D",
"5  c #771022",
"6  c #7E102E",
"7  c #4F2135",
"8  c #452D3C",
"9  c #4A2B38",
"0  c #542434",
"q  c #5F2632",
"w  c #552832",
"e  c #542A3A",
"r  c #5D2C39",
"t  c #5A2E36",
"y  c #44393F",
"u  c #5A303C",
"i  c #75262E",
"p  c #602230",
"a  c #672836",
"s  c #792633",
"d  c #792F37",
"f  c #1B453F",
"g  c #61463E",
"h  c #78553E",
"j  c #243440",
"k  c #2E3842",
"l  c #323B44",
"z  c #353440",
"x  c #4A3D43",
"c  c #463B46",
"v  c #7D3A43",
"b  c #004E4A",
"n  c #0B4C4F",
"m  c #1A474D",
"M  c #094D50",
"N  c #064C52",
"B  c #214341",
"V  c #2A4547",
"C  c #2B484C",
"Z  c #3A4349",
"A  c #34494C",
"S  c #2C504F",
"D  c #2E4E52",
"F  c #3A4B52",
"G  c #374E50",
"H  c #355454",
"J  c #3A5D5C",
"K  c #3B5857",
"L  c #3B605E",
"P  c #077271",
"I  c #3D6364",
"U  c #3F6D6A",
"Y  c #3B726F",
"T  c #377270",
"R  c #3D7774",
"E  c #434246",
"W  c #594543",
"Q  c #5D4F5C",
"!  c #6C4F45",
"~  c #644B47",
"^  c #6E534C",
"/  c #6F5145",
"(  c #735546",
")  c #745649",
"_  c #7A5947",
"`  c #734B55",
"'  c #585863",
"]  c #685C67",
"[  c #7C5561",
"{  c #7E5A64",
"}  c #59686F",
"|  c #7C666F",
" . c #7D6F79",
".. c #796975",
"X. c #627074",
"o. c #8B0000",
"O. c #960000",
"+. c #90001F",
"@. c #9E011E",
"#. c #87121C",
"$. c #95151A",
"%. c #AD0000",
"&. c #A90019",
"*. c #9F2A1E",
"=. c #800025",
"-. c #8D0020",
";. c #990922",
":. c #811022",
">. c #891622",
",. c #831A26",
"<. c #891A26",
"1. c #9F1E20",
"2. c #901C28",
"3. c #90152D",
"4. c #A61E20",
"5. c #802330",
"6. c #AE3223",
"7. c #964E2C",
"8. c #CC5006",
"9. c #C2421A",
"0. c #CA581E",
"q. c #CC521C",
"w. c #C65722",
"e. c #CC5A25",
"r. c #C95422",
"t. c #D76623",
"y. c #C97E22",
"u. c #D07F22",
"i. c #DB7E24",
"p. c #E47D23",
"a. c #E47525",
"s. c #943C42",
"d. c #815D44",
"f. c #B15F51",
"g. c #987046",
"h. c #A57945",
"j. c #A77E49",
"k. c #805963",
"l. c #876169",
"z. c #866771",
"x. c #8B757E",
"c. c #84757F",
"v. c #AB7B6F",
"b. c #DA7B4B",
"n. c #45807C",
"m. c #E58A24",
"M. c #FFAC21",
"N. c #FCB622",
"B. c #AE8146",
"V. c #BF8F49",
"C. c #B68847",
"Z. c #BC846F",
"A. c #A1827F",
"S. c #C1957E",
"D. c #D39776",
"F. c #7C7581",
"G. c #877982",
"H. c #977F82",
"J. c #968385",
"K. c #A78C85",
"L. c #B38E82",
"P. c #B89283",
"I. c #C39C84",
"U. c #C89D82",
"Y. c #C8A58B",
"T. c #CFAF95",
"R. c #E5CCAA",
"E. c #ECD2AE",
"W. c None",
/* pixels */
"W.W.W.W.W.W.W.W.W.W.W.W.W.W.W.W.W.W.W.W.W.W.W.W.W.W.W.W.W.W.W.W.",
"W.W.W.W.W.W.W.W.W.W.W.W.W.W.W.W.W.W.W.W.W.W.W.W.W.W.W.W.W.W.W.W.",
"W.W.W.W.W.W.W.W.W.W.W.W.W.W.W.W.W.W.W.W.W.W.W.W.W.W.W.W.W.W.W.W.",
"W.W.W.W.W.W.W.W.W.W.W.W.W.W.W.W.W.W.W.W.W.W.W.W.W.W.W.W.W.W.W.W.",
"W.W.W.W.W.W.W.W.W.W.W.W.W.W.W z W.W.W.W.W.W.W.W.W.W.W.W.W.W.W.W.",
"W.W.W.W.W.W.W.W.W.W.W.W.W.W.W ^ z W.W.W.W.W.W.W.W.W.W.W.W.W.W.W.",
"W.W.W.W.W.W.W.W.W.W.W.W.W.W.W./ ! W.W.W.W.W.W.W.W.W.W.W.W.W.W.W.",
"W.W.W.W.W.W.W.W.W.W.W.W.W.W.W.@ ~ x W.W.W.W.W.W.W.W.W.W.W.W.W.W.",
"W.W.W.W.W.W.W.W.W.W.W.W.W.W.  ~ j.W W.W.W.W.W.W.W.W.W.W.W.W.W.W.",
"W.W.W.W.W.W.W.W.W.W.W.W.W.W.W h.j.) W.W.W.W.W.W.W.W.W.W.W.W.W.W.",
"W.W.W.W.W.W.W.W.W.W.W.W.W.W B.C.d.( x W.W.W.W.W.W.W.W.W.W.W.W.W.",
"W.W.W.W.W.W.W.W.W.W.W.W.* ) h.C.g.! y W.W.W.W.W.W.W.W.W.W.W.W.W.",
"W.W.W.W.W.W.W.W.W.W.W.W.~ d.h.C.j._ ( * W.W.W.W.W.W.W.W.W.W.W.W.",
"W.W.W.W.W.W.W.W.W.W.W.# ) g.B.V.V.B._ * W.W.W.W.W.W.W.W.W.W.W.W.",
"W.W.W.W.W.W.W.W.W.W.W.# ) ~ g h h d.) = W.W.W.W.W.W.W.W.W.W.W.W.",
"$ * W.W.W.W.W.W.$ $ W.# c E m N B c x $ W.* $ $ W.W.W.W.W.W.* $ ",
"8 >.>.9 8 9 W.* D Z % W.S S Y n.J S B l W.$ F G * W.9 8 9 #.>.9 ",
"9 ,.5.+.#.5 r & G A % H J L R T Y H J K % $ V G & r 5 ,.-.s ,.9 ",
"0 r b e.;.;.:.< T H l k L H ' I J Z F J l l H T < :.;.&.e.b r e ",
"W.3.e.a.p.w.$.w M C D G Z @ m o B j o l k H V n 7 $.w.m.a.e.3.W.",
"W.i &.p.N.i.=.a p 0 7 V + l X.' } ' Q & V 0 0 p q 3 i.N.p.&.i W.",
"W.W.6 0.i.*.m.9.@.#.4 O ] ..H.I.L.P.J.] O 4 #.@.r.m.*.p.0.6 W.W.",
"W.W.4 4.3 y.M.r.+.,.s * ..Y.E.Y.I.U.J.z.z s ,.+.r.M.y.=.4.4 W.W.",
"W.W.W.r 1 t.m.2 n Z : { K.E.R.I.I.I.U.G.{ : Z n 2 m.t.. r W.W.W.",
"W.W.W.W.s 9.t.a C E > [ P.T.D.b.f.Z.K.G.k.> E C a t.9.s W.W.W.W.",
"W.W.W.W.e ;.6.e P K o.{ J.Z.8.7., $.| G.k.o.K P 7 6.;.e W.W.W.W.",
"W.W.W.W.W.a 2.,.r d O.` F.k.%.c l - k.G.` O.d r ,.2.r W.W.W.W.W.",
"W.W.W.W.W.W.W.e <.$.r . F.G.s.5 ; v G. .. e $.<.e W.W.W.W.W.W.W.",
"W.W.W.W.W.W.W.W.$ $ j W.x ' G.z.z.x.] c W.j $ $ W.W.W.W.W.W.W.W.",
"W.W.W.W.W.W.W.W.W.W.W.W.W.W.z l l z # W.W.W.W.W.W.W.W.W.W.W.W.W.",
"W.W.W.W.W.W.W.W.W.W.W.W.W.W.W.W.W.W.W.W.W.W.W.W.W.W.W.W.W.W.W.W.",
"W.W.W.W.W.W.W.W.W.W.W.W.W.W.W.W.W.W.W.W.W.W.W.W.W.W.W.W.W.W.W.W."
};
