/* XPM */
static char *result[] = {
/* columns rows colors chars-per-pixel */
"32 32 191 2 ",
"   c #00173E",
".  c #1E1C31",
"X  c #2D1F30",
"o  c #321F35",
"O  c #2F1231",
"+  c #002A3B",
"@  c #1D273A",
"#  c #1B333B",
"$  c #1D393B",
"%  c #292A37",
"&  c #322739",
"*  c #322D3D",
"=  c #3C2E3C",
"-  c #3F2033",
";  c #24313E",
":  c #2A333C",
">  c #2F3A3F",
",  c #32323E",
"<  c #3C333E",
"1  c #720000",
"2  c #6E0017",
"3  c #7C0A1D",
"4  c #77121E",
"5  c #5F0D2F",
"6  c #451C2F",
"7  c #59182C",
"8  c #560E38",
"9  c #760426",
"0  c #6B192C",
"q  c #731C2B",
"w  c #791828",
"e  c #790F32",
"r  c #442A39",
"t  c #4B2B38",
"y  c #5B2434",
"u  c #5A2A36",
"i  c #542A3A",
"p  c #562734",
"a  c #47353C",
"s  c #503E3F",
"d  c #652936",
"f  c #6E2838",
"g  c #732531",
"h  c #7B2B34",
"j  c #782835",
"k  c #6A3037",
"l  c #6A343B",
"z  c #75282B",
"x  c #6A4F3F",
"c  c #013442",
"v  c #003E4B",
"b  c #193841",
"n  c #372E40",
"m  c #2E3C42",
"M  c #273642",
"N  c #333D45",
"B  c #3A3744",
"V  c #4B3C41",
"C  c #413D43",
"Z  c #523F43",
"A  c #5D3041",
"S  c #77394B",
"D  c #004249",
"F  c #14504F",
"G  c #1F5758",
"H  c #2C4449",
"J  c #2C4C4C",
"K  c #34444A",
"L  c #344B4D",
"P  c #38464D",
"I  c #2B4E50",
"U  c #3A4D52",
"Y  c #2A5051",
"T  c #345554",
"R  c #3B5C5C",
"E  c #365858",
"W  c #38605D",
"Q  c #1C5F62",
"!  c #2A6363",
"~  c #3C6462",
"^  c #396D6A",
"/  c #277070",
"(  c #49474A",
")  c #574241",
"_  c #4B4A50",
"`  c #5C535E",
"'  c #6A4F49",
"]  c #674D48",
"[  c #685141",
"{  c #715345",
"}  c #7A5A44",
"|  c #785747",
" . c #794B55",
".. c #7F5058",
"X. c #644C57",
"o. c #7F614A",
"O. c #665A64",
"+. c #6C5C6A",
"@. c #645F70",
"#. c #417374",
"$. c #6F606C",
"%. c #71626D",
"&. c #7C6B76",
"*. c #786874",
"=. c #880001",
"-. c #9E000C",
";. c #870010",
":. c #9A061C",
">. c #84111B",
",. c #8E161E",
"<. c #95141D",
"1. c #A50000",
"2. c #A2001A",
"3. c #AB0311",
"4. c #A4131C",
"5. c #AC1C17",
"6. c #9C251F",
"7. c #B32B1D",
"8. c #BB3A18",
"9. c #8C0021",
"0. c #840725",
"q. c #811E29",
"w. c #891724",
"e. c #9D1D23",
"r. c #951727",
"t. c #A60321",
"y. c #84212E",
"u. c #812932",
"i. c #922B30",
"p. c #803833",
"a. c #AF3321",
"s. c #B93F21",
"d. c #C0391B",
"f. c #BB591F",
"g. c #9C4A2D",
"h. c #A94928",
"j. c #A65022",
"k. c #AB5132",
"l. c #B2512F",
"z. c #BE6823",
"x. c #C1471C",
"c. c #C3571F",
"v. c #D95E1D",
"b. c #C44E21",
"n. c #D35F23",
"m. c #CD6326",
"M. c #D96623",
"N. c #DF732D",
"B. c #CD6C30",
"V. c #E36F24",
"C. c #E37825",
"Z. c #81424B",
"A. c #825F48",
"S. c #AF5D4F",
"D. c #886346",
"F. c #926A43",
"G. c #9B7043",
"H. c #AA7D46",
"J. c #A07949",
"K. c #8F6169",
"L. c #826B73",
"P. c #84727C",
"I. c #A07F78",
"U. c #D78922",
"Y. c #ED8C23",
"T. c #E38E21",
"R. c #F49A23",
"E. c #EC9725",
"W. c #FBA922",
"Q. c #FAB023",
"!. c #AF8247",
"~. c #B88947",
"^. c #AB8B7F",
"/. c #B48F7F",
"(. c #BD917C",
"). c #C09149",
"_. c #CC9173",
"`. c #877984",
"'. c #8A7A84",
"]. c #468581",
"[. c #998284",
"{. c #A78B85",
"}. c #AA8C82",
"|. c #BD9684",
" X c #C49B84",
".X c #CA9F83",
"XX c #C8A289",
"oX c #D0B095",
"OX c #E3CAA8",
"+X c #EED5AF",
"@X c None",
/* pixels */
"@X@X@X@X@X@X@X@X@X@X@X@X@X@X@X@X@X@X@X@X@X@X@X@X@X@X@X@X@X@X@X@X",
"@X@X@X@X@X@X@X@X@X@X@X@X@X@X@X@X@X@X@X@X@X@X@X@X@X@X@X@X@X@X@X@X",
"@X@X@X@X@X@X@X@X@X@X@X@X@X@X@X@X@X@X@X@X@X@X@X@X@X@X@X@X@X@X@X@X",
"@X@X@X@X@X@X@X@X@X@X@X@X@X@X@X@X@X@X@X@X@X@X@X@X@X@X@X@X@X@X@X@X",
"@X@X@X@X@X@X@X@X@X@X@X@X@X@X@XD.@X@X@X@X@X@X@X@X@X@X@X@X@X@X@X@X",
"@X@X@X@X@X@X@X@X@X@X@X@X@X@X@X[ D.} @X@X@X@X@X@X@X@X@X@X@X@X@X@X",
"@X@X@X@X@X@X@X@X@X@X@X@X@X@X@X@X) A.C @X@X@X@X@X@X@X@X@X@X@X@X@X",
"@X@X@X@X@X@X@X@X@X@X@X@X@X@X@X@X[ H.V @X@X@X@X@X@X@X@X@X@X@X@X@X",
"@X@X@X@X@X@X@X@X@X@X@X@X@X@X@X@X[ H.a @X@X@X@X@X@X@X@X@X@X@X@X@X",
"@X@X@X@X@X@X@X@X@X@X@X@X@X@Xb   D.!.) @X@X@X@X@X@X@X@X@X@X@X@X@X",
"@X@X@X@X@X@X@X@X@X@X@X@X@X@XD.J.G.{ V @X@X@X@X@X@X@X@X@X@X@X@X@X",
"@X@X@X@X@X@X@X@X@X@X@X@X@ ] H.~.o.{ V @X@X@X@X@X@X@X@X@X@X@X@X@X",
"@X@X@X@X@X@X@X@X@X@X@X@X] H.).~.D.{ V @X@X@X@X@X@X@X@X@X@X@X@X@X",
"@X@X@X@X@X@X@X@X@X@X@X] | { F.F.} } V @X@X@X@X@X@X@X@X@X@X@X@X@X",
"b @X@X@X@X@X@X* * @X@XZ ) b + c ) ) < @X@X@X* @X@X@X@X@X@Xc : @X",
"g w u ; = @X* P P * @XH Y ~ ].~ I b m , @XB L B @X< = M q w A @X",
"0.e.0.w w p M J L & @XR T ^ ^ ^ E E T , @XP T M = 0 y.9 r.<.y @X",
"g v l.4.;.w.7 W W & : W R #.#.#.U U ~ K & N ^ a w w.;.x.( M f @X",
"e k.N.M.b.e.4 G T > U T & : X % > & K J n m ! t ,.a.n.V.B.i.0 @X",
"u 3.M.W.E.t.8 t 6 T N > , W U E R * * > M = 6 r 9 m.Q.Y.8.r.@X@X",
"@Xe x.R.f.j.c.:.q.7 N P : $ @ # # . m L = q r.7.z.6.T.C.r.p @X@X",
"@Xp 4.2.j.Q.C.2.,.2 P I n +.%.%.%.%._ F y >.:.d.W.U.9.7.9 @X@X@X",
"@X@Xh O f.R.g.B a h O O.P.{. X|. X^.*.; g k K 8 U.Y.5 k u @X@X@X",
"@X@X@XA 8.V.h D J g k $.oX+XoX|..X/.P.X.3 V J @ n.n.w.c @X@X@X@X",
"@X@X@Xa :.s.j Q ! 2  .^.OXOXXX X XXX[.&.3 ( / < a.5.j @X@X@X@X@X",
"@X@X@X@Xu :.w.( ( >.S ^. X_.N.k.S.^.P.L.;.l U k 2.u., @X@X@X@X@X",
"@X@X@X@X@Xu y.-.:.=. .`.I.8.g.  =...`.L.2 <.1.r.f n @X@X@X@X@X@X",
"@X@X@X@X@X@XM i i i N &.P.1.q c 1 Z.'.` r y i t @X@X@X@X@X@X@X@X",
"@X@X@X@X@X@X@X@X@X@X@X*.[.K.h j Z.P.P.@X@X@X@X@X@X@X@X@X@X@X@X@X",
"@X@X@X@X@X@X@X@X@X@X@X@XB &.&.&.`.O.% @X@X@X@X@X@X@X@X@X@X@X@X@X",
"@X@X@X@X@X@X@X@X@X@X@X@X@X@X@X@X@X@ @X@X@X@X@X@X@X@X@X@X@X@X@X@X",
"@X@X@X@X@X@X@X@X@X@X@X@X@X@X@X@X@X@X@X@X@X@X@X@X@X@X@X@X@X@X@X@X"
};
