/* XPM */
static char *result[] = {
/* columns rows colors chars-per-pixel */
"32 32 171 2 ",
"   c #00013C",
".  c #39172D",
"X  c #311E36",
"o  c #24132B",
"O  c #0A233E",
"+  c #00323D",
"@  c #162632",
"#  c #2D2D3C",
"$  c #26283B",
"%  c #332D3C",
"&  c #30273A",
"*  c #29393E",
"=  c #33303E",
"-  c #3B343E",
";  c #790000",
":  c #69051E",
">  c #770015",
",  c #750419",
"<  c #580026",
"1  c #5C1928",
"2  c #411335",
"3  c #531B36",
"4  c #7F0026",
"5  c #6A1D2D",
"6  c #771022",
"7  c #7E102E",
"8  c #4F2135",
"9  c #452D3C",
"0  c #4A2B38",
"q  c #542434",
"w  c #5F2632",
"e  c #552832",
"r  c #542A3A",
"t  c #5D2C39",
"y  c #5A2E36",
"u  c #5A303C",
"i  c #75262E",
"p  c #602230",
"a  c #672836",
"s  c #792633",
"d  c #792F37",
"f  c #1B453F",
"g  c #61453E",
"h  c #77533B",
"j  c #243440",
"k  c #2E3842",
"l  c #323B44",
"z  c #353440",
"x  c #4B3D43",
"c  c #463B46",
"v  c #7D3A43",
"b  c #004E4A",
"n  c #0B4C4F",
"m  c #094D50",
"M  c #014C52",
"N  c #174B4F",
"B  c #214341",
"V  c #2A4547",
"C  c #2B4A4D",
"Z  c #29464B",
"A  c #3A4349",
"S  c #34494C",
"D  c #2E4E52",
"F  c #3A4B52",
"G  c #374E50",
"H  c #355454",
"J  c #3A5D5C",
"K  c #3B5857",
"L  c #3B605E",
"P  c #077271",
"I  c #3D6364",
"U  c #3F6D6A",
"Y  c #3B726F",
"T  c #377270",
"R  c #3D7774",
"E  c #434246",
"W  c #534145",
"Q  c #5B4645",
"!  c #5F4946",
"~  c #5D4F5C",
"^  c #654B44",
"/  c #715243",
"(  c #75564A",
")  c #7B5A48",
"_  c #734B55",
"`  c #585863",
"'  c #685C67",
"]  c #7C5561",
"[  c #7E5A64",
"{  c #59686F",
"}  c #7C666F",
"|  c #7D6F79",
" . c #796975",
".. c #627074",
"X. c #8B0000",
"o. c #960000",
"O. c #90001F",
"+. c #9E011E",
"@. c #87121C",
"#. c #95151A",
"$. c #AD0000",
"%. c #A90019",
"&. c #9F2A1E",
"*. c #800025",
"=. c #8D0020",
"-. c #990922",
";. c #811022",
":. c #891622",
">. c #831A26",
",. c #891A26",
"<. c #9F1E20",
"1. c #901C28",
"2. c #90152D",
"3. c #A61E20",
"4. c #802330",
"5. c #AE3223",
"6. c #964E2C",
"7. c #CC5006",
"8. c #C2421A",
"9. c #CA581E",
"0. c #CC521C",
"q. c #C65722",
"w. c #CC5A25",
"e. c #C95422",
"r. c #D76623",
"t. c #C97E22",
"y. c #D07F22",
"u. c #DB7E24",
"i. c #E47D23",
"p. c #E47525",
"a. c #943C42",
"s. c #835E45",
"d. c #B15F51",
"f. c #8A6345",
"g. c #946B46",
"h. c #9D7648",
"j. c #A57A45",
"k. c #AA7D47",
"l. c #805963",
"z. c #876169",
"x. c #866771",
"c. c #8B757E",
"v. c #84757F",
"b. c #AB7B6F",
"n. c #DA7B4B",
"m. c #45807C",
"M. c #E58A24",
"N. c #FFAC21",
"B. c #FCB622",
"V. c #AC8147",
"C. c #B48647",
"Z. c #B98B48",
"A. c #BC846F",
"S. c #A1827F",
"D. c #C19149",
"F. c #C1957E",
"G. c #D39776",
"H. c #7C7581",
"J. c #877982",
"K. c #977F82",
"L. c #968385",
"P. c #A78C85",
"I. c #B38E82",
"U. c #B89283",
"Y. c #C39C84",
"T. c #C89D82",
"R. c #C8A58B",
"E. c #CFAF95",
"W. c #E5CCAA",
"Q. c #ECD2AE",
"!. c None",
/* pixels */
"!.!.!.!.!.!.!.!.!.!.!.!.!.!.!.!.!.!.!.!.!.!.!.!.!.!.!.!.!.!.!.!.",
"!.!.!.!.!.!.!.!.!.!.!.!.!.!.!.!.!.!.!.!.!.!.!.!.!.!.!.!.!.!.!.!.",
"!.!.!.!.!.!.!.!.!.!.!.!.!.!.!.!.!.!.!.!.!.!.!.!.!.!.!.!.!.!.!.!.",
"!.!.!.!.!.!.!.!.!.!.!.!.!.!.!.!.!.!.!.!.!.!.!.!.!.!.!.!.!.!.!.!.",
"!.!.!.!.!.!.!.!.!.!.!.!.!.!.!.!.!.!.!.!.!.!.!.!.!.!.!.!.!.!.!.!.",
"!.!.!.!.!.!.!.!.!.!.!.!.!.!.!.!.!.!.# Q !.!.!.!.!.!.!.!.!.!.!.!.",
"!.!.!.!.!.!.!.!.!.!.!.!.!.!.!.!.!.!.( x !.!.!.!.!.!.!.!.!.!.!.!.",
"!.!.!.!.!.!.!.!.!.!.!.!.!.!.!.!.  g.) !.!.!.!.!.!.!.!.!.!.!.!.!.",
"!.!.!.!.!.!.!.!.!.!.!.!.!.!.!.O V.f.  !.!.!.!.!.!.!.!.!.!.!.!.!.",
"!.!.!.!.!.!.!.!.!.!.!.!.!.!.! k.V.Q !.!.!.!.!.!.!.!.!.!.!.!.!.!.",
"!.!.!.!.!.!.!.!.!.!.!.!.!.Q k.Z.f.Q !.!.!.!.!.!.!.!.!.!.!.!.!.!.",
"!.!.!.!.!.!.!.!.!.!.!.!.= ( j.C.h.W !.!.!.!.!.!.!.!.!.!.!.!.!.!.",
"!.!.!.!.!.!.!.!.!.!.!.!.^ ) j.C.k.! !.!.!.!.!.!.!.!.!.!.!.!.!.!.",
"!.!.!.!.!.!.!.!.!.!.!.$ ) g.C.D.C.f.W !.!.!.!.!.!.!.!.!.!.!.!.!.",
"!.!.!.!.!.!.!.!.!.!.!.$ ( ^ g h / / ) z !.!.!.!.!.!.!.!.!.!.!.!.",
"% = !.!.!.!.!.!.% % !.# c E N M Z x c z !.= % % !.!.!.!.!.!.= % ",
"9 :.:.0 9 0 !.# H S & !.D D T { H D f l !.% S H % !.0 9 0 :.:.9 ",
"0 >.4.=.:.6 t * S A X H L T R R Y H J H & % S S * t 6 :.=.4.>.0 ",
"q y b w.+.-.:.1 T H l V L G I I J A F J l l H T 1 ;.-.+.w.b y q ",
"!.2.w.p.i.q.#.q m C C S S # B o B * o l k H V n 8 #.q.M.p.w.2.!.",
"!.i %.i.B.u.4 a p q 8 V @ E ..` { ` ~ = V 8 e p w 4 u.B.i.%.i !.",
"!.!.>.e.i.&.y.0.%.@.5 + ' ' P.I.U.U.K.' + 5 @.+.e.M.&.i.w.7 !.!.",
"!.!.5 3.*.t.N.w.=.>.s k  .E.W.E.Y.T.L.| = s >.O.e.N.t.*.3.5 !.!.",
"!.!.!.x 2 r.M.3 n A > ] P.Q.W.U.Y.Y.T.c.[ > A n 3 M.r.. t !.!.!.",
"!.!.!.!.s 8.r.a C c , ] U.E.G.n.d.A.P.| [ , E C a r.8.s !.!.!.!.",
"!.!.!.!.r +.5.y P K X.[ L.A.7.6.< #.} J.[ X.K P q 5.-.r !.!.!.!.",
"!.!.!.!.!.a 1.>.t d o._ H.z.$.c l ; z.J._ o.d u >.1.w !.!.!.!.!.",
"!.!.!.!.!.!.!.x ,.#.r . | J.a.6 : v c.| . r -.:.r !.!.!.!.!.!.!.",
"!.!.!.!.!.!.!.!.# % * !.c ' J.x.x.J.' c !.j % z !.!.!.!.!.!.!.!.",
"!.!.!.!.!.!.!.!.!.!.!.!.!.!.z l l z $ !.!.!.!.!.!.!.!.!.!.!.!.!.",
"!.!.!.!.!.!.!.!.!.!.!.!.!.!.!.!.!.!.!.!.!.!.!.!.!.!.!.!.!.!.!.!.",
"!.!.!.!.!.!.!.!.!.!.!.!.!.!.!.!.!.!.!.!.!.!.!.!.!.!.!.!.!.!.!.!."
};
