/* XPM */
static char *fd80f6dc277d4d38f978b3226df7a8cbsblDnOl745hQbxma[] = {
/* columns rows colors chars-per-pixel */
"32 32 17 1 ",
"  c None",
". c #29243F",
"X c #2A2640",
"o c #42195D",
"O c #5B276D",
"+ c #49436D",
"@ c #975606",
"# c #916E0D",
"$ c #C35622",
"% c #E0A800",
"& c #D4A429",
"* c #742A81",
"= c #595483",
"- c #797DC6",
"; c #995A94",
": c #FDE8B4",
"> c #8096D4",
/* pixels */
"XX+=+++XXX+++===XX+=+++XXX+++===",
"--------X---------------X-------",
"--------+---------------+-------",
"--------+=--------------+=------",
"--------+=--------------+=------",
"------>>+=>>---------->>+=>>----",
"==>>>>==X===>=>>==>>>>==X===>=>>",
"========X===============X=======",
"XX+++++XXX++++++XX+++++XXX++++++",
"X+==============X+==============",
"X=------------==X=------------==",
"X=-------------=X=-------------=",
"+=--------------+=--------------",
"+=--------------+=--------------",
"+=->>>>>---->>->+=->>>>>---->>->",
"+>>=====>>>===>++>>=====>>>===>+",
"+-=============++-=============+",
"+==============++==============+",
"X+==============X+==============",
"X++++===+====+++X++++===+====+++",
"XXXXXXXXXXXXXXXXXXXXXXXXXXXXXXXX",
"=======+X+=============+X+======",
"========X===============X=======",
"=+==+=+=X++=+====+==+=+=X++=+===",
"X+++++++X+++++++X+++++++X+++++++",
"XXXXXXXXXXXXXXXXXXXXXXXXXXXXXXXX",
"X=+===+=====+===X=+===+=====+===",
"X+++++++++++++++X+++++++++++++++",
"XXXX+X++X++XXX+XXXXX+X++X++XXX+X",
"XXXXXXXXXXXXXXXXXXXXXXXXXXXXXXXX",
"++++++=+.==+++++++++++=+.==+++++",
"XXXXXXXXXXXXXXXXXXXXXXXXXXXXXXXX"
};
